<svg width="18" height="18" viewBox="0 0 18 18" fill="none" xmlns="http://www.w3.org/2000/svg">
<rect width="18" height="18" rx="3" fill="#914FFD"/>
<path d="M11.9702 5.96999C12.111 5.83588 12.2985 5.76173 12.493 5.76321C12.6875 5.76468 12.8738 5.84165 13.0126 5.97787C13.1514 6.1141 13.2319 6.29893 13.237 6.49336C13.2422 6.68779 13.1716 6.87661 13.0402 7.01999L9.05016 12.01C8.98155 12.0839 8.89874 12.1432 8.80669 12.1844C8.71464 12.2255 8.61523 12.2477 8.51441 12.2496C8.41359 12.2514 8.31343 12.2329 8.21991 12.1952C8.1264 12.1575 8.04146 12.1013 7.97016 12.03L5.32416 9.38399C5.25047 9.31532 5.19137 9.23252 5.15038 9.14052C5.10938 9.04853 5.08734 8.94921 5.08557 8.84851C5.08379 8.74781 5.10231 8.64778 5.14004 8.55439C5.17776 8.461 5.2339 8.37617 5.30512 8.30495C5.37634 8.23373 5.46117 8.17758 5.55456 8.13986C5.64795 8.10214 5.74798 8.08362 5.84868 8.08539C5.94938 8.08717 6.0487 8.10921 6.1407 8.15021C6.2327 8.1912 6.3155 8.2503 6.38416 8.32399L8.47816 10.417L11.9512 5.99199L11.9702 5.96999Z" fill="white"/>
</svg>
